<svg xmlns="http://www.w3.org/2000/svg" width="309" height="35" viewBox="0 0 309 35">
    <path fill="#FFF" fill-rule="evenodd" d="M33.793 10.019v.025c.173 4.821-7.151 4.559-7.084-.047-.135-4.977 7.153-4.952 7.084.022v.029-.033.004zm-10.752.432c1.254 1.067 2.207 2.493 1.828 4.219L20.82 25.99l.806-16.376c.504.154 1.006.505 1.415.837zm-4.305 15.357l-2.38-16.346c1.565-.593 3.345-.52 4.698.012l-2.318 16.334zm-4.348-15.374c.408-.331.912-.683 1.415-.837l.806 16.376-4.048-11.318c-.38-1.727.575-3.153 1.827-4.221zm-8.15 1.554s3.253-.31 4.845 1.936c1.378 1.868 2.351 8.514 3.305 12.516-2.698-4.574-5.452-9.683-8.15-14.452zm-4.792 2.395a5.283 5.283 0 0 1 4.204-2.324l6.857 15.226L1.446 14.383zm23.14 3.486c.722-2.475 2.958-3.324 5.144-3.486-2.278 4.131-4.607 8.203-6.974 12.332l1.83-8.846zm5.799-3.486c1.715.026 3.24.601 4.413 1.84L24.553 27.49l5.832-13.106zM.016 20.218c-.088-2.01.176-3.833 1.074-5.4l9.73 13.853C7.193 25.89 3.616 23.017.016 20.218zm36.038-2.387c.463.879.632 1.915.598 2.977-3.376 2.684-6.772 5.374-10.273 8.008L35.2 16.64c.381.35.636.753.855 1.19zM.042 25.85L.04 20.957c3.148 3.088 6.3 6.132 9.416 9.266L.042 25.85zm36.616.321c-3.081 1.466-5.869 2.83-8.89 4.22l8.89-8.686v4.466zM.016 30.191v-3.66l8.486 5.645C5.941 31.624 2.851 30.82.016 30.19zm36.642.259l-7.896 1.815c2.469-1.77 5.234-3.54 7.896-5.247v3.432zM.016 34.47v-3.576l8.286 3.576H.016zm36.642 0h-7.663c2.571-1.096 4.942-2.074 7.663-3.253v3.253zM10.116 7.45c.47 5.064-7.458 4.991-7.194.01-.297-4.824 7.428-5.027 7.194-.01zm8.628.967c-3.243-.094-3.954-2.362-4.02-4.03C14.607 1.376 16.464 0 18.752 0c2.285 0 4.201 1.292 4.08 4.385-.076 1.986-1.222 4.112-4.088 4.032zm60.951 6.238h3.369V34.28h-3.369V14.655zm-11.946 0h4.174l6.726 19.625h-3.518l-1.875-5.645h-7.154L64.296 34.3h-3.298l.006-.017h-.755l-7.14-9.68v9.676h-3.37l-.001-19.625h3.37v9.322l6.896-9.316h3.88l-7.43 9.57 5.575 7.072 5.72-16.648zm-.776 11.241l2.596-8.128h.08l2.697 8.128h-5.373zm125.4 2.962l3.471-14.219h5.762v19.63h-3.283V17.56s-4.213 16.708-4.256 16.708h-3.378l-4.28-16.734v16.734h-3.307V14.642h5.89l3.382 14.216zm17.693-14.226h4.167l6.757 19.648h-3.521l-1.886-5.67h-7.164l-1.807 5.665h-3.3l6.754-19.643zm-.774 11.236l2.593-8.124h.08l2.708 8.124h-5.38zm25.368 3.919v-15.16h3.248v19.641h-4.602l-7.647-14.793v14.793h-3.184l-.008-19.62 4.44-.018 7.753 15.157zm63.823 1.625l.008 2.863-11.353-.003.003-19.637s8.674-.02 10.664-.013v2.845s-6.556.016-7.327 0v5.553l5.923.003v2.845h-5.923v5.544h8.005zm-30.7-16.79h17.695l.017 2.983h-5.776v16.67h-3.383v-16.67h-5.915v16.663h-4.607l-7.642-14.95v14.95h-.262l-16.5.004.003-19.637s8.672-.02 10.657-.013v2.845s-6.55.016-7.322 0v5.553l5.924.003v2.845h-5.924v5.544h10.228V14.638h4.442l7.752 15.307V14.627h.615l-.002-.005zm-89.558 9.766c-.676.595-1.5 1.01-2.606 1.262l5.245 8.647h-4.024s-3.285-5.92-4.836-8.37h-1.671v8.341l-17.024.004V14.635s8.672-.02 10.665-.013v2.845s-6.558.016-7.33 0v5.553l5.929.003v2.845h-5.93v5.544h10.304v-8.48h.004v-8.293h5.662c2.811 0 4.472.39 5.65 1.424 1.056.928 1.815 2.33 1.815 4.147 0 1.817-.797 3.252-1.853 4.178zm-7.892-1.338v-5.533h2.846c2.547 0 3.583 1.009 3.583 2.728 0 1.888-1.019 2.805-3.583 2.805h-2.846zm-45.284 1.338c-.675.595-1.5 1.01-2.61 1.262l5.244 8.647h-4.022s-3.286-5.92-4.833-8.37h-1.672v8.341l-17.027.004V14.635s8.68-.02 10.667-.013v2.845s-6.556.016-7.327 0v5.553l5.928.003v2.845h-5.928v5.544h10.297v-8.48h.01v-8.293h5.66c2.812 0 4.471.39 5.647 1.424 1.055.928 1.82 2.33 1.82 4.147 0 1.817-.798 3.252-1.854 4.178zm-7.893-1.338v-5.533H120c2.547 0 3.586 1.009 3.586 2.728 0 1.888-1.02 2.805-3.586 2.805h-2.844zm32.245-6.934c1.057.925 1.81 2.462 1.81 4.28 0 1.813-.782 3.356-1.836 4.276-1.179 1.034-2.812 1.53-5.626 1.53h-2.276v8.078h-3.385V14.64h5.66c2.815 0 4.47.444 5.653 1.476zm-5.083 7.211h-2.846v-5.81h2.846c2.542 0 3.582 1.142 3.582 2.861 0 1.785-1.16 2.95-3.582 2.95zm-51.415-.506c3.408 1.279 5.145 2.956 5.145 5.825 0 3.102-2.38 5.838-7.42 5.838-1.942 0-3.956-.523-5.093-1.151V30.28c1.19.81 3.48 1.426 5.329 1.426 2.332 0 3.731-1.16 3.731-2.82 0-1.524-1.077-2.425-3.616-3.325-3.275-1.13-5.438-2.844-5.438-5.678 0-3.191 2.878-5.567 7.06-5.567 1.644 0 3.27.491 4.133.915v2.825c-.829-.442-2.495-1.028-4.206-1.028-2.349 0-3.53 1.347-3.53 2.527 0 1.544 1.259 2.28 3.905 3.266zm208.674 7.98c0-1.88 1.41-3.299 3.214-3.299 1.793 0 3.2 1.418 3.2 3.3 0 1.91-1.407 3.32-3.2 3.32-1.805 0-3.214-1.41-3.214-3.32zm3.214 3.986c2.156 0 3.995-1.682 3.995-3.985 0-2.28-1.839-3.967-3.995-3.967-2.17 0-4.015 1.686-4.015 3.967 0 2.303 1.844 3.985 4.015 3.985zm-.832-3.67h.794l1.201 1.988h.775l-1.3-2.019c.67-.087 1.182-.442 1.182-1.261 0-.905-.53-1.304-1.608-1.304h-1.736v4.584h.692v-1.989zm0-.588V29.11h.937c.481 0 .993.107.993.673 0 .7-.519.746-1.102.746h-.828z"/>
</svg>
